<svg aria-hidden="true" style="position: absolute; width: 0; height: 0; overflow: hidden;" version="1.1" xmlns="http://www.w3.org/2000/svg" xmlns:xlink="http://www.w3.org/1999/xlink">
<defs>
<symbol id="icon-linkedin-square" viewBox="0 0 24 28">
<path d="M3.703 22.094h3.609v-10.844h-3.609v10.844zM7.547 7.906c-0.016-1.062-0.781-1.875-2.016-1.875s-2.047 0.812-2.047 1.875c0 1.031 0.781 1.875 2 1.875h0.016c1.266 0 2.047-0.844 2.047-1.875zM16.688 22.094h3.609v-6.219c0-3.328-1.781-4.875-4.156-4.875-1.937 0-2.797 1.078-3.266 1.828h0.031v-1.578h-3.609s0.047 1.016 0 10.844v0h3.609v-6.062c0-0.313 0.016-0.641 0.109-0.875 0.266-0.641 0.859-1.313 1.859-1.313 1.297 0 1.813 0.984 1.813 2.453v5.797zM24 6.5v15c0 2.484-2.016 4.5-4.5 4.5h-15c-2.484 0-4.5-2.016-4.5-4.5v-15c0-2.484 2.016-4.5 4.5-4.5h15c2.484 0 4.5 2.016 4.5 4.5z"></path>
</symbol>
<symbol id="icon-twitter" viewBox="0 0 26 28">
<path d="M25.312 6.375c-0.688 1-1.547 1.891-2.531 2.609 0.016 0.219 0.016 0.438 0.016 0.656 0 6.672-5.078 14.359-14.359 14.359-2.859 0-5.516-0.828-7.75-2.266 0.406 0.047 0.797 0.063 1.219 0.063 2.359 0 4.531-0.797 6.266-2.156-2.219-0.047-4.078-1.5-4.719-3.5 0.313 0.047 0.625 0.078 0.953 0.078 0.453 0 0.906-0.063 1.328-0.172-2.312-0.469-4.047-2.5-4.047-4.953v-0.063c0.672 0.375 1.453 0.609 2.281 0.641-1.359-0.906-2.25-2.453-2.25-4.203 0-0.938 0.25-1.797 0.688-2.547 2.484 3.062 6.219 5.063 10.406 5.281-0.078-0.375-0.125-0.766-0.125-1.156 0-2.781 2.25-5.047 5.047-5.047 1.453 0 2.766 0.609 3.687 1.594 1.141-0.219 2.234-0.641 3.203-1.219-0.375 1.172-1.172 2.156-2.219 2.781 1.016-0.109 2-0.391 2.906-0.781z"></path>
</symbol>
<symbol id="icon-facebook" viewBox="0 0 16 28">
<path d="M14.984 0.187v4.125h-2.453c-1.922 0-2.281 0.922-2.281 2.25v2.953h4.578l-0.609 4.625h-3.969v11.859h-4.781v-11.859h-3.984v-4.625h3.984v-3.406c0-3.953 2.422-6.109 5.953-6.109 1.687 0 3.141 0.125 3.563 0.187z"></path>
</symbol>
<symbol id="icon-youtube-play" viewBox="0 0 28 28">
<path d="M11.109 17.625l7.562-3.906-7.562-3.953v7.859zM14 4.156c5.891 0 9.797 0.281 9.797 0.281 0.547 0.063 1.75 0.063 2.812 1.188 0 0 0.859 0.844 1.109 2.781 0.297 2.266 0.281 4.531 0.281 4.531v2.125s0.016 2.266-0.281 4.531c-0.25 1.922-1.109 2.781-1.109 2.781-1.062 1.109-2.266 1.109-2.812 1.172 0 0-3.906 0.297-9.797 0.297v0c-7.281-0.063-9.516-0.281-9.516-0.281-0.625-0.109-2.031-0.078-3.094-1.188 0 0-0.859-0.859-1.109-2.781-0.297-2.266-0.281-4.531-0.281-4.531v-2.125s-0.016-2.266 0.281-4.531c0.25-1.937 1.109-2.781 1.109-2.781 1.062-1.125 2.266-1.125 2.812-1.188 0 0 3.906-0.281 9.797-0.281v0z"></path>
</symbol>
<symbol id="icon-google" viewBox="0 0 24 28">
<path d="M12 12.281h11.328c0.109 0.609 0.187 1.203 0.187 2 0 6.844-4.594 11.719-11.516 11.719-6.641 0-12-5.359-12-12s5.359-12 12-12c3.234 0 5.953 1.188 8.047 3.141l-3.266 3.141c-0.891-0.859-2.453-1.859-4.781-1.859-4.094 0-7.438 3.391-7.438 7.578s3.344 7.578 7.438 7.578c4.75 0 6.531-3.406 6.813-5.172h-6.813v-4.125z"></path>
</symbol>
<symbol id="icon-keyboard_arrow_down" viewBox="0 0 24 24">
<path d="M7.406 8.578l4.594 4.594 4.594-4.594 1.406 1.406-6 6-6-6z"></path>
</symbol>
<symbol id="icon-keyboard_arrow_left" viewBox="0 0 24 24">
<path d="M15.422 16.594l-1.406 1.406-6-6 6-6 1.406 1.406-4.594 4.594z"></path>
</symbol>
<symbol id="icon-keyboard_arrow_right" viewBox="0 0 24 24">
<path d="M8.578 16.594l4.594-4.594-4.594-4.594 1.406-1.406 6 6-6 6z"></path>
</symbol>
<symbol id="icon-keyboard_arrow_up" viewBox="0 0 24 24">
<path d="M7.406 15.422l-1.406-1.406 6-6 6 6-1.406 1.406-4.594-4.594z"></path>
</symbol>
<symbol id="icon-mouse" viewBox="0 0 32 32">
<path d="M15.5 16c-2.209 0-4-1.791-4-4h-6v10c0 5.522 4.477 10 10 10s10-4.478 10-10v-10h-6c0 2.209-1.791 4-4 4zM11.5 8c0-2.209 1.791-4 4-4s4 1.791 4 4v2h6c0-5.523-4.477-10-10-10s-10 4.477-10 10h6v-2zM14.5 7v6c0 0.552 0.448 1 1 1s1-0.448 1-1v-6c0-0.552-0.448-1-1-1s-1 0.448-1 1z"></path>
</symbol>
<symbol id="icon-cog" viewBox="0 0 32 32">
<path d="M32 17.969v-4l-4.781-1.992c-0.133-0.375-0.273-0.738-0.445-1.094l1.93-4.805-2.829-2.828-4.762 1.961c-0.363-0.176-0.734-0.324-1.117-0.461l-2.027-4.75h-4l-1.977 4.734c-0.398 0.141-0.781 0.289-1.16 0.469l-4.754-1.91-2.828 2.828 1.938 4.711c-0.188 0.387-0.34 0.781-0.485 1.188l-4.703 2.011v4l4.707 1.961c0.145 0.406 0.301 0.801 0.488 1.188l-1.902 4.742 2.828 2.828 4.723-1.945c0.379 0.18 0.766 0.324 1.164 0.461l2.023 4.734h4l1.98-4.758c0.379-0.141 0.754-0.289 1.113-0.461l4.797 1.922 2.828-2.828-1.969-4.773c0.168-0.359 0.305-0.723 0.438-1.094l4.782-2.039zM15.969 22c-3.312 0-6-2.688-6-6s2.688-6 6-6 6 2.688 6 6-2.688 6-6 6z"></path>
</symbol>
<symbol id="icon-search" viewBox="0 0 32 32">
<path d="M31.12 31.12c-1.174 1.174-3.077 1.174-4.25 0l-5.304-5.304c-2.18 1.399-4.758 2.232-7.541 2.232-7.745 0-14.024-6.278-14.024-14.024s6.279-14.024 14.024-14.024c7.746 0 14.024 6.278 14.024 14.024 0 2.782-0.834 5.361-2.232 7.542l5.304 5.304c1.174 1.174 1.174 3.076 0 4.249zM14.024 4.007c-5.532 0-10.017 4.484-10.017 10.017s4.485 10.017 10.017 10.017c5.533 0 10.017-4.484 10.017-10.017s-4.484-10.017-10.017-10.017z"></path>
</symbol>
<symbol id="icon-user-solid-circle" viewBox="0 0 20 20">
<path d="M10 20c-5.523 0-10-4.477-10-10s4.477-10 10-10v0c5.523 0 10 4.477 10 10s-4.477 10-10 10v0zM7 6v2c0 1.657 1.343 3 3 3s3-1.343 3-3v0-2c0-1.657-1.343-3-3-3s-3 1.343-3 3v0zM3.35 14.44c1.456 2.155 3.89 3.553 6.65 3.553s5.194-1.398 6.632-3.525l0.018-0.028c-1.951-0.918-4.238-1.453-6.65-1.453s-4.699 0.536-6.748 1.495l0.098-0.041z"></path>
</symbol>
</defs>
</svg>
